<svg version="1.1" xmlns="http://www.w3.org/2000/svg" viewBox="0 0 728 591.2000274658203" width="728" height="591.2000274658203">
  <!-- svg-source:excalidraw -->
  
  <defs>
    <style>
      @font-face {
        font-family: "Virgil";
        src: url("https://excalidraw.com/Virgil.woff2");
      }
      @font-face {
        font-family: "Cascadia";
        src: url("https://excalidraw.com/Cascadia.woff2");
      }
    </style>
  </defs>
  <rect x="0" y="0" width="728" height="591.2000274658203" fill="#ffffff"></rect><g stroke-linecap="round" transform="translate(10 10) rotate(0 354 285.60001373291016)"><path d="M0.39 0.05 C253.96 -2.14, 506.82 -2.24, 708.39 0.57 M0.36 -0.23 C198.79 0.8, 398.25 0.94, 708.14 -0.09 M708.61 -0.77 C710.45 152.88, 709.52 304.94, 707.85 570.67 M708.12 0.12 C707.78 152.98, 707.69 306.24, 707.83 571.24 M708.78 571.5 C558.61 571.29, 410.06 571.23, 0.39 571.22 M707.77 570.84 C490.77 569.29, 272.63 569.24, -0.02 571.42 M0.79 570.51 C-1.98 418.02, -0.99 264.19, -0.33 0.18 M-0.14 570.93 C-1.3 447.81, -1.45 324.6, 0.12 -0.23" stroke="#000000" stroke-width="1" fill="none"></path></g><g stroke-linecap="round" transform="translate(10 10.800003051757812) rotate(0 353.60003662109375 95.60000610351562)"><path d="M0 0 C0 0, 0 0, 0 0 M0 0 C0 0, 0 0, 0 0 M0.04 6.77 C1.57 3.71, 2.97 2.35, 4.82 0.35 M-0.19 6.16 C0.9 4.81, 2.43 2.84, 4.86 0.09 M-0.75 11.62 C0.79 8.88, 6.01 6.9, 11.51 1.23 M-0.46 12.64 C2.18 9, 6.25 5.45, 10.5 0.15 M-0.96 19.91 C4.23 13.02, 10.61 5.57, 16.56 0.84 M-0.27 19.35 C3.08 13.27, 6.8 8.47, 14.91 0.97 M1.58 25.67 C4.71 17.72, 13.44 9.66, 22.8 0.81 M0.8 24.78 C8.67 14.42, 16.66 5.71, 20.65 0.24 M-1.02 28.91 C6.57 21.87, 14.21 16.66, 27.54 1.99 M0.63 31.47 C9.25 19.57, 17.65 10.1, 26.94 0.3 M-0.94 36.95 C10.16 24.48, 21.31 9.77, 32.05 0.29 M-0.31 37.3 C10.25 24.37, 21.28 11.67, 31.64 0.26 M0.64 41.94 C14.37 28.7, 24.12 14.46, 36.06 -1.58 M-0.3 42.78 C8.25 34.62, 15.15 25.55, 37.64 -0.12 M-0.79 48.63 C16.04 29.9, 33.58 9.84, 40.6 -0.68 M-0.68 49.01 C9.93 38.44, 17.98 28.01, 42.89 0.29 M1.01 56.46 C17.33 35.15, 36.4 12.8, 46.3 1.63 M-0.52 55.24 C10.91 41.1, 23.02 27.82, 46.8 -0.21 M1.43 59.08 C13.6 44.97, 28.73 28.27, 52.22 1.07 M-0.14 60.65 C14.47 45.6, 29.08 27.39, 52.28 0.65 M-0.91 66.51 C14.23 51.37, 25.97 37.06, 58.13 1.96 M0.22 67.87 C14.38 49.28, 30.15 31.52, 58.13 0.89 M1.47 72.78 C12.99 57.81, 26.36 44.69, 63.35 -1.43 M0.11 73.03 C25.25 44.02, 49.87 15.44, 63.1 -0.98 M0.49 77.72 C20.15 58.19, 40.25 34.04, 69.05 -1.39 M-0.38 78.78 C18.37 59.02, 36.61 37.32, 68.26 -0.11 M0.69 87.04 C16.23 63.88, 34.87 44.87, 73.07 0.66 M-0.26 84.8 C26.04 54.95, 50.89 26.03, 75.07 -0.6 M-0.48 89.84 C24.26 64.16, 46.45 38.24, 80.22 1.6 M-0.21 90.64 C30.65 54.09, 62.61 18.02, 79.75 0.33 M-0.51 98.76 C25.9 68.28, 48.75 40.11, 85.12 -1.95 M-0.27 98.19 C23.05 70, 46.43 42.72, 85.33 -0.9 M-0.21 103.69 C33.05 63.24, 67.46 27.68, 90.47 1.81 M0.93 102.73 C21.26 80.62, 42.06 56.1, 90.06 -0.42 M1.87 111.44 C24.26 79.23, 52.18 52.14, 93.9 1.29 M-0.08 108.99 C20.62 84.17, 43.89 58.22, 95.44 -0.21 M-0.42 115.94 C31.62 81.26, 61.64 43.26, 102.27 0.96 M-0.32 114.63 C27.58 81.95, 56.61 49.4, 100.61 -0.19 M1.52 121.68 C28.64 89.54, 56.35 56.22, 106.47 -1.24 M0.12 122.08 C22.43 96.43, 44.7 70.58, 106.39 0.44 M1.16 129.87 C36.01 86.51, 68.95 48.39, 111.76 1.6 M-0.59 128.02 C32.1 89.18, 66.12 52.05, 111.71 -0.94 M-1.54 134.16 C38.27 90.04, 79.02 41.29, 115.89 -0.53 M-0.29 133.42 C36.62 92.36, 73.03 50.62, 116.93 1.12 M-0.56 142.32 C33.57 102.8, 66 61.11, 122.72 1.15 M-0.08 140.62 C42.76 90.99, 85.44 41.75, 121.6 0.17 M0.35 144.41 C28.72 114.72, 55 85.14, 125.82 -0.04 M0 145.8 C29.62 114.03, 59.58 80.75, 127.19 0.95 M0 154.06 C37.13 108.74, 75.37 62.72, 132.6 1.65 M0.39 151.85 C44.61 98.59, 92.49 45.41, 133.35 -0.17 M-0.15 157.71 C39.63 111.05, 82.65 65.67, 136.75 -0.92 M0.46 158.61 C42.25 109.72, 85.73 61.08, 137.75 -0.28 M-0.21 165.54 C44.04 112.6, 90.77 58.62, 142.6 0.68 M-0.62 164.4 C46.99 109.65, 95.59 54.62, 142.44 -0.44 M-0.64 171.26 C42.39 121.08, 86.57 69.14, 149.78 0.14 M0.69 171.58 C42.87 119.72, 89.01 68.88, 147.47 -0.38 M0.21 174.88 C51.34 119.8, 103.12 59.39, 154.98 -0.08 M0.17 176.66 C60.34 107.69, 118.85 40.47, 154.19 0.46 M0.47 182.59 C34.48 141.75, 72.09 99.84, 158.43 -0.65 M-0.63 183.13 C38.86 137.25, 76.99 94.35, 158.98 1.01 M0.73 187.71 C65.47 114.35, 129.37 38.74, 164.97 -0.01 M0.43 189.86 C49.52 132.9, 98.76 75.22, 165.04 -0.71 M3.64 191.95 C63.46 122.06, 124.67 50.32, 170.34 1.25 M2.64 192.82 C59.21 127.25, 115.8 62.98, 169.31 0.5 M7.33 193.65 C68.46 121.4, 127.11 54.94, 176.01 -1.07 M6.76 192.49 C63.18 127.65, 118.76 63.67, 175.75 -0.61 M12.2 191.57 C68.12 129.37, 122.02 66.88, 178.64 0.38 M12.02 193.01 C57.74 141.07, 105.16 87.24, 179.28 0.01 M18.31 194.31 C78.08 123.29, 138.25 54.14, 184.64 0.32 M17.81 193.25 C58.23 145.94, 100.41 98.16, 185.35 -0.25 M23.77 193.35 C83.27 125.61, 143.4 58.5, 190.06 -0.7 M23.74 192.51 C82.09 126.42, 139.08 58.82, 190.77 0.83 M27.27 194.5 C86.27 123.91, 143.59 57.43, 195.19 -1.2 M28.23 192.3 C70.15 144.88, 110.56 96.8, 196.8 -0.71 M32.9 193.61 C75.53 146.29, 117.33 98.86, 200.52 0.4 M33.55 191.78 C84.52 133.44, 136.12 75, 201.2 -0.32 M39.75 191.88 C97.94 129.05, 153.48 62.62, 208.49 0.92 M39.49 192.77 C83.27 139.54, 129.07 87.98, 206.56 -0.8 M43.56 190.95 C83.8 148, 124.25 104.95, 212.95 1.15 M45.23 191.96 C90.7 137.07, 138.12 82.16, 212.34 0.81 M48.88 192.06 C111.79 123.47, 173.16 52.02, 217.04 1.04 M49.4 192.41 C100.1 134.11, 150.26 76.1, 218.31 -1.08 M53.94 191.89 C104.95 132.57, 155.59 72.99, 222.72 -1.17 M54.57 193.21 C107.97 131.12, 160.94 69.06, 223.08 0.64 M59.62 194.08 C116.46 130.38, 172.47 64.81, 229.19 -0.96 M60.92 192.43 C100.06 146.75, 139.3 101.67, 227.56 0.16 M63.91 193.28 C112.43 138.49, 161.23 83.93, 232.19 -1.28 M65.73 192.43 C102.14 151.43, 139.03 108.69, 233.47 -0.07 M71 191.99 C127.85 127.1, 186.18 58.21, 237.85 -0.55 M70.12 193.54 C104.87 151.64, 139.79 111.26, 238.02 0.41 M75.96 191.68 C130.9 128.48, 186.46 67.4, 242.65 -0.51 M75.19 193.53 C120.77 139.55, 165.81 88.71, 243.86 -0.32 M80.97 192.65 C115.55 152.04, 151.04 113.16, 247.26 0.39 M81.44 193.47 C130.79 137.53, 179.38 81.35, 248.81 0.42 M86.48 191.65 C127.04 145.45, 167.22 100.15, 255.91 1.3 M86.47 193.88 C146.09 126.97, 204.34 58.98, 254.19 0.36 M91.25 191.47 C143.02 131.59, 195.27 73.2, 257.86 -0.32 M92.44 192.61 C156.37 117.56, 221.6 43.45, 259.45 -0.19 M96.45 191.99 C163.18 118.83, 228.57 44.71, 266.23 0.96 M97.38 193.9 C133.29 151.12, 168.13 110.52, 264.7 -0.54 M102.46 193.43 C157.11 129.55, 211.53 65.77, 270.42 -0.08 M102.61 193.27 C157.66 127.14, 215.2 62.09, 270.08 -0.24 M106.55 193.79 C163.55 127.48, 219.72 63.49, 274.88 0.01 M107.29 193.1 C174.99 117.76, 241.63 41.32, 275.18 0.4 M112.53 192.09 C168.38 126.8, 224.17 63.95, 280.62 1.17 M114.21 192.36 C146.78 155.1, 181.13 116.49, 279.94 -0.32 M118.8 192.34 C157.47 148.14, 198.13 103.13, 285.25 -0.17 M117.91 192.46 C173.46 130.74, 228.47 67.73, 285.74 0.4 M124.75 193.8 C174.67 135.1, 222.78 77.09, 290.3 -0.7 M123.38 191.88 C185.93 117.41, 251.33 43.64, 291.45 -0.37 M128.49 191.71 C170.39 146.98, 210.76 98.85, 298.04 0.08 M129.29 193.62 C165.38 153.56, 200.21 114.16, 297.68 -0.62 M133.27 193.46 C197.44 116.88, 261.59 41.97, 302.64 0.58 M135.47 193.32 C188.18 132.17, 242.38 70.09, 301.3 -0.43 M138.71 193.41 C189.08 136.15, 241.14 75.99, 306.4 0.3 M138.99 193.23 C195.3 131.68, 250.54 68.88, 307.75 -0.89 M144.06 192.33 C184.77 144.58, 226 97.43, 314.11 0.63 M144.89 191.95 C207.86 119.45, 270.19 47.62, 312.6 0.1 M149.04 191.58 C212.32 123.7, 271.74 54.9, 316.95 -1.71 M150.97 193.48 C210.28 123.39, 269.22 55.13, 318.72 -0.77 M157.16 193.14 C205.85 133.98, 257.49 74.04, 322.47 -0.98 M155.25 192.19 C213.74 125.56, 272.23 58.17, 322.71 0.07 M160.39 193.91 C211.66 130.97, 263.4 71.51, 328.74 -1.84 M160.22 193.17 C200.43 147.56, 241.78 100.04, 328.84 -0.37 M164.42 192.81 C219.23 133.11, 271.07 71.38, 334.94 0.8 M166.64 193.04 C227.73 120.09, 290.59 47.07, 333.82 0.63 M170.16 194.28 C223.06 136.01, 271.57 75.73, 338.14 -0.93 M171.4 193.37 C226.22 128.68, 282.39 63.59, 339.15 -0.32 M176.32 193.92 C208.6 153.31, 244.04 113.73, 343.89 -1.19 M175.79 193.89 C214.56 152.66, 249.95 109.27, 343.99 -0.45 M183.57 193.71 C221.62 148.47, 256.26 106.28, 349.45 0.81 M181.81 193.44 C221.67 147.35, 261.74 100.27, 348.73 -0.26 M187.39 194.73 C250.4 117.01, 316.02 44.67, 354.36 1.09 M187.48 193.46 C252.13 119.07, 315.52 46.41, 354.43 0.11 M192.62 192.26 C261.85 116.74, 327.47 39.49, 359.79 -0.86 M193.52 193.38 C255.4 121.23, 317.42 51.1, 359.78 0.6 M196.57 194.27 C244.23 141.52, 285.97 91.98, 366.25 0.24 M197.02 192.4 C261.17 119.19, 326.64 46.05, 365.51 0.6 M203.58 193.93 C252.55 136.05, 304.54 78.04, 369.68 1.69 M202.93 193.03 C271.22 114.47, 338.68 37.2, 371.29 0.76 M208.15 194.62 C268.3 123.78, 327.01 56.05, 375.97 0.82 M208.11 193.21 C259.02 134.59, 309.12 77.36, 375.92 0.01 M212.74 192.07 C254.67 143.89, 296.07 95.64, 380.84 0.62 M214.4 192.95 C249.59 153.75, 282.61 114.45, 380.77 0.62 M220.52 192.93 C276.24 122.89, 335.04 56.33, 387.69 -1.62 M219.14 193.03 C254.43 151.18, 290.96 108.7, 386.69 0.38 M224.19 193.66 C271.7 137.08, 318.9 85.49, 390.65 0.94 M225 191.91 C279.34 130.62, 334.19 65.35, 392.58 0.87 M230.98 192.66 C269.35 147.24, 308.39 99.45, 398.89 0.47 M230.48 192.49 C290.3 121.99, 352.15 49.49, 397.18 -0.39 M235.3 191.79 C285.72 133.32, 338.04 76.66, 403.52 -0.58 M234.95 192.59 C286.73 132.49, 339.57 71.68, 402.51 0.01 M240.58 192.32 C276.22 154.17, 310.56 114.37, 408.36 -0.83 M240.4 193.29 C277.55 150.79, 315.53 107.73, 407.51 0.27 M244.76 193.2 C303.93 124.02, 366.62 55.07, 413.03 -0.83 M245.2 192.68 C309.49 122.5, 371.01 51.04, 413.16 0.07 M252.51 193.49 C305.9 131.98, 356.95 72.95, 417.84 -1.46 M250.73 192.55 C313.63 122.86, 374.62 52.01, 419.33 -0.82 M257.45 193.95 C311.99 126.35, 365.76 63.6, 423.03 1.58 M256.67 192.17 C307.48 134.41, 358.36 76.42, 423.43 0.92 M260.82 192.83 C300.52 146.78, 339.63 101.2, 430.43 0.08 M261.23 193.31 C301.43 149.33, 339.25 103.53, 430.2 -0.55 M266.65 194.05 C305.13 149.52, 342.07 104.14, 433.02 1.43 M267.77 192.49 C331.16 118.91, 393.56 46, 434.18 -0.58 M271.37 193.29 C326.28 129.15, 380.51 69.66, 439.24 1.16 M272.02 192.42 C336.61 118.53, 399.42 46.23, 440.85 0.02 M278.32 192.57 C333.17 131.01, 390 64.28, 446.3 1.46 M278.46 192.56 C325.74 138.53, 371.74 86.57, 445.81 0.03 M284.12 192.86 C336.29 128.87, 391.98 66.85, 451.63 -0.19 M282.71 192.62 C350.86 115.2, 417.55 37.25, 451.13 -0.3 M289.37 193.23 C327.76 145.72, 368.64 99.49, 455.34 1.05 M287.19 193.49 C346.11 128.21, 402.9 63.67, 455.81 -0.65 M294.69 192.64 C340.77 137.47, 388.58 80.38, 461.81 -0.43 M293.28 192.1 C329.55 149.33, 365.99 107.2, 460.83 -0.42 M298.42 193.35 C333.96 153.76, 366.35 115.28, 466.1 1.06 M299.15 193.19 C347.91 135.46, 397.46 79.38, 466.06 -0.09 M305.7 191.99 C343.35 146.67, 385.66 100.52, 471.07 -1.01 M304.87 193.35 C371.77 116.31, 438.9 40.02, 471.44 -0.26 M309.92 193.18 C344.39 150.26, 382.12 108.48, 476.99 -0.97 M308.62 193.33 C370.01 125.47, 429.43 56.06, 477.17 -0.33 M315.45 193.37 C365.64 131.37, 418.73 73.54, 482.44 -0.14 M314.08 192.65 C351.62 149.26, 390.63 105.62, 481.53 0.3 M319.02 194.49 C373.64 131.68, 426.79 70.14, 486.94 0.39 M320.15 193.84 C375.06 131.72, 428.36 69.55, 487.66 -0.73 M326.01 194.26 C361.67 151.05, 399.08 106.95, 491.82 0.46 M325.14 192.2 C364.78 146.89, 403.53 100.6, 493.27 0.26 M331.86 193.32 C378.54 139.95, 425.52 87.39, 497.03 0.82 M330.99 192.94 C376.82 140.69, 421.23 88.84, 498.02 -0.4 M335.12 192.03 C396.96 122.46, 461.44 49.1, 501.98 0.62 M336.17 192.87 C382.17 139.76, 428.88 87.69, 502.96 0.15 M341.43 194.42 C391.83 130.72, 446.35 70, 508.86 0.66 M341.52 192.72 C384.17 143.38, 427.62 91.95, 508.25 -0.56 M347.52 191.99 C409.65 117.9, 470.74 47.24, 513.78 0.84 M346.4 193.35 C385.03 145.98, 426.14 99.14, 514.12 0.37 M351.71 193.56 C417.21 116.44, 484.17 38.4, 519.74 0.16 M351.27 193.52 C390.06 145.38, 430.29 98.59, 520.31 -0.61 M357.18 192.87 C412.26 130.49, 467.23 69, 524.58 0.68 M357.07 192.6 C417.36 123.8, 476.86 55.83, 523.75 0.36 M363.18 192.01 C414.57 132.25, 466.01 70.2, 530.72 1.04 M362.95 193.13 C417.72 129.5, 473.43 65.12, 530.88 -0.46 M368.28 191.65 C417.91 136.02, 466.98 76.76, 536.31 0.41 M367.29 192.26 C414.23 142.55, 457.51 90.37, 534.42 -0.56 M374.45 191.76 C408.88 148.74, 450.29 103.51, 541.76 -1.54 M373.51 192.42 C432.8 125.9, 490.72 59.33, 540.17 0.25 M377.45 191.64 C426.03 140.64, 472.96 84.78, 547.37 -0.66 M378.15 192.66 C440.38 122.84, 502.12 51.69, 545.42 0.81 M383.82 193.83 C434.15 130.75, 488.19 69.77, 550.14 -1.27 M383.12 192.93 C431.47 137.02, 477.52 82.38, 551.18 -0.29 M388.33 191.2 C430.2 145.6, 473.7 98.27, 557.53 0.7 M388.65 191.91 C437.04 137.04, 485.18 82.88, 556.77 -0.53 M394.19 193.49 C445.63 134.8, 497 74.95, 561.72 -1.66 M394.27 192.84 C427.23 151.62, 462.39 111.76, 562.39 -0.4 M399.57 192.53 C440.64 147.79, 482.66 97.75, 566.26 0.32 M399.1 194.03 C460.56 122.73, 522.75 50.52, 566.84 0.77 M404.93 191.5 C468.35 119.29, 530.79 48.68, 573.22 -1.46 M404.56 192.6 C468.82 119.4, 532.24 45.38, 573.43 -0.54 M409.1 193.83 C469.01 124.52, 528.41 56.6, 577.6 1.19 M409.69 193.77 C444.91 154.5, 479.75 114.47, 577.96 0.24 M416.74 192.57 C457.86 147.92, 496.32 102.43, 582.85 1.17 M415.56 192.53 C473.63 124.68, 531.98 57.39, 582.01 -0.17 M421.47 192.2 C469.37 133.57, 520.11 75.56, 588.87 -1.12 M420.58 193.23 C473.76 133.03, 528.39 69.81, 587.53 0.52 M426.85 194 C467.23 145.51, 508.6 97.9, 594.54 0.84 M425.55 192.01 C463.78 148.11, 502.25 104.39, 593.79 0.08 M429.52 191.96 C469.91 146.24, 509.25 103.76, 598.7 -0.64 M430.54 193.23 C473.7 143.05, 516.72 93.59, 598.57 -0.71 M437.01 193.76 C486.38 133.92, 538.08 74, 602.69 0.77 M436.77 193.51 C476.26 149.02, 515.16 103.09, 604.74 0.47 M441.13 194.03 C506.34 117.47, 572.71 44.06, 608.7 1.17 M441.88 193.25 C493.51 132.34, 544.9 72.68, 609.18 -0.28 M448.73 192.13 C504.52 124.74, 564.2 58.18, 615.84 1.68 M446.59 192.06 C505.46 126.18, 562.96 58.82, 614.24 -0.01 M451.82 194.41 C517.19 120.84, 580.83 45.91, 621.79 0.34 M451.62 193.81 C518.9 118.93, 583.97 42.79, 619.83 0.03 M458.37 193.3 C499.62 142.79, 544.72 90.17, 625.27 0.94 M457.92 192.29 C497.84 145.95, 538.92 98.7, 625.23 -0.52 M462.45 192.18 C518.79 130.38, 573.31 64.88, 630.94 -1.59 M463.56 192.49 C521.97 123.92, 582.01 55.28, 630.9 -0.93 M468.5 194.07 C528.39 122.65, 589.28 51.31, 635.72 0.62 M468.79 193.02 C533.67 119.31, 596.59 44.98, 635.37 0.87 M474.43 194.34 C530.93 126.55, 591.2 58.87, 640.15 0.82 M472.97 192.8 C521.86 137.3, 570.48 81.77, 641.93 0.42 M479.77 191.91 C535.93 127.12, 591.55 62.41, 647.62 -0.56 M479.59 192.92 C527.58 134.37, 577.37 76.42, 645.85 -0.1 M484.86 191.66 C523.32 147.04, 560.03 103.26, 653.13 -0.83 M483.54 193.62 C519.43 153.23, 553.28 113.89, 652.37 0.26 M489.35 193.06 C533.42 138.96, 581.16 86.4, 658.69 0.86 M489.02 192.94 C542.19 132.45, 593.89 72.3, 657.43 -0.17 M494.6 192.53 C560.21 117.85, 624.36 44.91, 662.02 -1.34 M495.24 193.35 C553.06 127.73, 611.31 59.71, 662.44 -0.56 M498.94 191.5 C539.7 147.21, 578.52 101.22, 668.79 -1.5 M499.77 192.32 C538.3 149.1, 574.11 106.91, 667.96 -0.65 M506.62 192.29 C552.09 140.3, 595.9 88.67, 674.82 0.33 M505.2 192.22 C557.78 133.11, 610.5 73.72, 673.9 -0.48 M510.01 193.23 C563.29 130.89, 616.08 70.67, 678.32 0.41 M511.22 192.52 C549.85 150.63, 586.77 107.92, 678.06 -0.18 M514.78 194.23 C580.66 118.12, 642.74 44.45, 684.73 -0.58 M516.48 193.18 C567.27 134.38, 617.25 77.22, 684.4 0.28 M521.45 192.73 C580.31 127.18, 637.27 60.44, 689.83 1.55 M521.24 192.44 C583.39 121.03, 647.82 49.09, 688.68 -0.34 M527.97 191.84 C576.62 136.28, 625.5 79.61, 694.35 -0.05 M526.06 192.96 C572.48 140.96, 617.23 88.75, 694.78 -1.04 M530.61 194.21 C567.06 153.21, 600.88 112.98, 699.93 -1.57 M531.2 192.58 C587.59 127.1, 645.18 61.22, 700.33 -0.04 M536.25 192.99 C595.95 127.03, 652.36 56.76, 703.73 0.91 M536.91 192.61 C603.54 118.51, 669.7 41.23, 704.33 -0.16 M543.91 191.94 C594.12 133.07, 647.25 70.22, 709.3 1.82 M542.88 192.35 C582.76 146.19, 624.87 98.37, 709.28 1.98 M547.96 192.52 C582.52 151.36, 618.53 112.12, 708.06 8.89 M547.49 193.45 C610.97 118.38, 674.39 45.24, 709.32 8.37 M551.95 194.67 C604.21 133.26, 658.19 69.88, 709.35 12.1 M552.15 192.69 C587.06 154.52, 620.4 116.31, 709.67 13.98 M559.09 193.26 C611.06 135.87, 661.6 77.04, 707.83 19.52 M559.06 193 C592.13 155.89, 623.4 119.79, 709.1 19.85 M562.94 192.18 C606.92 146.18, 646.17 95.42, 710.78 26.33 M563.84 192.78 C598.9 153.2, 635.59 111.49, 709.74 24.77 M567.51 191.2 C607.13 150.04, 641.55 108.5, 708.56 31.89 M569.91 192.24 C616.37 139.16, 663.99 84.87, 708.12 31.25 M575.14 193.28 C627.21 131.13, 678.89 69.87, 708.1 37.62 M574.43 192.45 C615.57 143.09, 659.59 94.62, 709.08 39.16 M578.58 194.52 C618.61 146.72, 653.2 106.71, 709.98 43.6 M579.35 193.59 C614.95 152.13, 648.61 113.32, 709.64 44.15 M584.4 194.11 C616.55 154.25, 648.01 118.96, 706.81 50.43 M584.41 193.17 C622.84 150.42, 660.41 108.06, 709.72 49.38 M590.04 192.91 C626.03 155.82, 657.33 115.53, 707.23 54.63 M590.95 192.24 C620.34 158.05, 649.52 124.33, 709.62 55.35 M597.3 192.59 C627.12 154.58, 664.54 115.92, 708.46 62.59 M596.35 193.6 C621.49 161.94, 649.19 129.43, 709.09 62.1 M599.28 193.01 C622.12 166.87, 645.39 138.74, 708.43 70.6 M602.01 192.38 C641.62 146.73, 682.07 99.65, 707.75 67.86 M606.66 191.75 C637.44 154.36, 670.92 121.01, 709.37 74.57 M605.83 193.95 C634.51 160.24, 662.97 126.41, 709.8 74.06 M610.56 193.48 C631.78 166.89, 657.03 140.58, 707.38 81.73 M612.16 192.6 C633.74 167.54, 655.79 141.47, 709.76 81.38 M616.83 193.44 C643.15 160.93, 669.76 131.91, 710.6 84.76 M616.29 193.36 C646.17 160.07, 674.75 125.75, 709.83 87.26 M620.83 190.83 C639.47 171.86, 655.4 153.74, 709.54 93.31 M622.43 192.81 C646.02 165.07, 671.03 135.5, 708.3 93.69 M625.81 192.33 C660.91 156.55, 690.47 117.87, 707.2 100.14 M628.13 192.79 C656.61 157.92, 684.05 125.8, 708.93 98.74 M633.01 194.19 C658.16 163.41, 686.07 134.62, 708.71 104.77 M631.65 194.02 C655.78 167.06, 679.63 141.5, 708.62 104.61 M639.27 193.97 C655.86 173.57, 672.29 155.71, 708.86 111.28 M637.66 192.03 C664.62 162.84, 691.1 131.41, 708.24 110.65 M644.65 192.24 C657.15 178.02, 673.27 159.48, 708.33 116.36 M642.02 192.29 C660.41 170.98, 680.08 150.78, 708.88 117.84 M648.54 192.73 C671.22 169.58, 692.67 144.41, 709.94 122.86 M648.08 192.67 C663.13 176.25, 677.93 157.29, 709.36 123.69 M654.01 191.79 C671.57 175.75, 685.45 155.55, 706.84 127.91 M654.18 192.28 C674.81 167.92, 696.23 145.29, 708.51 130.63 M660.59 193.82 C674.87 172.83, 690.36 155.47, 710.12 136.64 M658.57 193.18 C670.02 180.12, 681.01 169.31, 709.95 135.16 M664.62 192.72 C675.73 177.25, 689.22 164.2, 710.33 141.86 M664.89 193.22 C681.23 173.6, 697.81 154.39, 709.83 141.81 M668.05 191.3 C680.24 178.95, 691.48 168.19, 707.73 146.24 M669.17 191.81 C684.46 176.07, 701.69 157.73, 710.11 146.69 M674.72 194.77 C685.91 179.87, 694.54 169.49, 710.55 153.75 M675.28 192.67 C687.35 179.22, 700.72 165.16, 709.11 153.29 M679.21 194.09 C690.59 181.85, 702.61 166.12, 709.13 159.85 M679.89 193.66 C688.81 181.89, 697.63 173.36, 708.71 159.97 M687.15 191.52 C691.57 184.41, 700.06 177.17, 709.56 167.19 M685.95 193.52 C691.52 184.93, 699.76 176.59, 708.2 166.05 M692.02 191.93 C698.6 183.5, 704.06 178.81, 709.26 171.27 M691.65 193.66 C698.4 184.84, 703.23 179.09, 708.98 172.78 M695.45 192.38 C700.3 188.17, 704.76 182.78, 709.1 176.66 M695.89 192.98 C698.15 190.36, 702.55 185.79, 708.88 177.92 M700.83 193.07 C703.51 189.17, 707.44 186.65, 709.41 183.27 M701.48 193.15 C703.86 190.27, 706.43 188.25, 709.33 184.42" stroke="#228be6" stroke-width="0.5" fill="none"></path><path d="M-0.03 -0.72 C158.36 3.22, 317.3 3.19, 707.02 -0.22 M-0.07 0.16 C190.74 0.79, 382.16 0.35, 707.53 -0.1 M709.18 -0.08 C708.14 37.79, 708.89 77.86, 707.18 189.54 M708.02 0.26 C706.58 46.59, 706.1 91.81, 706.23 190.28 M706.99 191.78 C467.8 189.57, 229 189.7, -0.17 191.84 M707.21 191.48 C449.33 189.94, 191.94 190.18, -0.22 191.06 M-1.97 192.26 C3.31 129.69, 1.95 72.12, -1.66 0.23 M0.92 191.37 C1.61 122.23, 1.13 55.62, 0.95 0.67" stroke="#000000" stroke-width="1" fill="none"></path></g><g transform="translate(276.39996337890625 39.40000915527344) rotate(0 87 17.5)"><text x="0" y="25" font-family="Virgil, Segoe UI Emoji" font-size="28px" fill="#000000" text-anchor="start" style="white-space: pre;" direction="ltr">STOPWATCH</text></g><g stroke-linecap="round" transform="translate(151.60003662109375 162.8000030517578) rotate(0 213.19998168945312 19.199996948242188)"><path d="M-1.75 1.64 L424.81 1.05 L426.69 37.74 L-0.85 40.37" stroke="none" stroke-width="0" fill="#ced4da"></path><path d="M-0.52 -0.71 C117.47 -1.11, 235.28 -0.73, 425.9 0.07 M-0.03 -0.23 C110.19 2.26, 221.13 2.43, 426.37 0.09 M427.21 0.22 C425.59 14.18, 426.47 28.54, 427.99 36.53 M425.91 0.53 C425.74 7.92, 426.77 16.15, 425.57 39.22 M426.18 38.22 C283.08 41.21, 138.42 40.86, -0.02 38.2 M426.57 38 C323.76 37.61, 221.46 37.1, -0.3 38.36 M-1.59 38.31 C1.59 27.7, -1.76 22.03, -1.83 1.87 M-0.56 37.79 C-0.38 28.35, -0.51 19.8, -0.05 -0.79" stroke="#000000" stroke-width="1" fill="none"></path></g><g stroke-linecap="round" transform="translate(10.399871826171875 204.6000213623047) rotate(0 353.5999755859375 187.99999999999994)"><path d="M0 0 C0 0, 0 0, 0 0 M0 0 C0 0, 0 0, 0 0 M-0.47 7.03 C0.78 4.4, 1.43 4.13, 4.21 0.55 M-0.23 6.31 C1.21 4.82, 2.38 3.64, 4.86 0.23 M0.37 10.61 C3.64 7.8, 8.31 4.88, 11.82 -1.4 M0.66 11.79 C3.06 8.95, 6.12 6.14, 10.27 0.72 M-1.91 20.3 C6.2 11.52, 7.44 9.32, 15.65 -1.29 M-0.98 18.39 C2.39 13.78, 7.68 9.94, 15.67 1.02 M1.93 23.79 C6.86 16.79, 12.85 8.59, 22.59 0.84 M0.87 24.35 C8.02 14.54, 16.82 6.39, 22.07 -0.29 M1.52 28.9 C7.25 24.73, 11.77 16.87, 27.74 0.74 M0.64 31.07 C9.08 19.23, 21.04 6.46, 26.65 0.62 M-1.65 38.5 C11.12 26.42, 19.4 13.75, 30.55 1.37 M-1.15 37.81 C6.52 27.84, 13.98 18.89, 31.04 0.46 M1.47 43.77 C13.8 26.9, 26.8 12.77, 37.47 -0.02 M0.97 42.65 C12.64 28.71, 23.75 13.61, 37.67 0.84 M1.05 48.02 C8.9 35.97, 19.01 23.99, 40.73 1.56 M-0.81 48.57 C9.66 37.2, 19.96 24.67, 41.74 -1.01 M-1.45 52.74 C16.15 35.55, 31.94 20.79, 48.66 -1.71 M-0.29 54.91 C14 39.34, 26.12 23.71, 47.7 -0.43 M1.06 61.12 C18.78 38.8, 37.37 21.83, 52.53 -1.04 M-0.75 61.2 C15.95 43.11, 31.01 25.8, 53.22 -0.56 M-0.61 68.22 C13.73 51.9, 29.21 32.72, 56.8 0.4 M0.32 66.67 C22.98 41.25, 43.79 14.72, 57.64 -0.52 M1.74 72.63 C14.32 55.49, 31.77 36.32, 62.01 0.95 M0.99 72.31 C16.79 55.55, 32.5 38.54, 63.96 -0.7 M1.23 78.22 C19.93 52.65, 43.22 30.37, 67.02 -0.13 M-0.34 79.86 C16.03 60.7, 34.76 40.02, 69.31 1.1 M0.1 86.25 C27.97 51.19, 54.43 18.91, 75.87 -1.23 M-0.69 84.37 C17.51 64.83, 35.49 45.48, 74.88 0.38 M1.99 92.86 C27.92 57.35, 59.75 23.63, 80.1 1.1 M-0.95 90.97 C30.02 56.14, 61.38 20.52, 78.45 -0.22 M0.14 97.25 C31.39 60.83, 65.01 21.66, 85.5 1.51 M0.35 97.41 C16.51 76.89, 34.53 56.13, 84.3 -0.19 M0.92 103.34 C20.14 80.64, 41.31 55.19, 90.49 1.34 M-0.13 103.08 C34.37 64.93, 68.06 26.34, 89.72 0.69 M1.5 111.5 C24.79 80.91, 51.71 51.59, 96.9 -1.93 M-0.86 109.04 C35.06 69.53, 69.23 30.19, 94.97 -0.94 M-0.08 116.7 C21.47 89.42, 46.27 64.22, 100.3 0.69 M-0.06 115.58 C28.56 81.1, 58.76 47.54, 99.72 -0.17 M1.5 119.98 C28.91 90.47, 52.51 61.09, 104.77 -0.78 M0.69 121.96 C31.39 84.58, 64.47 47.54, 107.06 -1.08 M0.89 126.6 C31.24 93.15, 59.03 57.49, 113.28 0.09 M-0.17 127.97 C30.48 93.61, 59.97 59.81, 111.94 -0.95 M-0.23 133.75 C37.31 93.43, 72.51 52.24, 117.78 0.33 M-0.45 133.94 C36.22 91.95, 72.49 49.8, 116.51 1.27 M-1.65 140.25 C48.04 88.26, 93.62 33.4, 120.84 -0.7 M0.52 139.8 C42.16 90.37, 85.48 41.16, 121.83 -1.01 M-0.4 146.71 C31.9 107.77, 63.71 69.73, 127.23 0.34 M0.23 145.57 C28.97 112.17, 60.03 77.64, 126.65 1.05 M1.35 152.93 C51.59 98.05, 97.74 41.01, 132.12 -0.93 M0.38 152.22 C32.77 114.51, 65 76.94, 131.8 0.14 M1.1 158.42 C39.02 112.63, 76.66 71.13, 137.18 0.31 M-0.5 158.12 C32.65 120.51, 64.58 82.49, 137.29 -0.16 M-0.94 163.39 C43.1 114.98, 87.76 64.59, 143.61 -1.28 M0.93 163.96 C51.89 103.54, 104.56 43.03, 143.8 -0.14 M-1.11 172.52 C53.88 109.38, 108.27 49.85, 148.68 -1.36 M-0.07 171.04 C35.04 131.15, 69.98 92.28, 148.18 -0.32 M-0.22 175.45 C44.8 122.79, 92.48 70.48, 154.02 -1.4 M-0.54 176.85 C57.94 110.38, 114.08 43.41, 153.59 -0.67 M1.28 181.5 C36.15 135.19, 75.9 92.88, 158.23 0.45 M-0.65 182.6 C36.88 139.81, 74.94 96.66, 159.57 0.78 M-0.8 189.79 C54.86 131.01, 105.79 71.19, 165.09 1.24 M-0.14 188.56 C39.8 140.51, 79.9 92.99, 163.91 0.18 M-0.26 196.49 C56.55 130.82, 111.81 68.72, 169.71 -1.14 M-0.38 194.44 C38.89 149.19, 77.93 105.15, 169.55 -0.4 M-0.94 200 C58.57 134.49, 118.07 68.46, 176.53 0.06 M0.66 200.7 C39.18 155.99, 77.72 112.09, 174.76 0.54 M0.52 206.15 C57.62 138.51, 117.08 69.04, 179.27 0.15 M-0.04 206.35 C52.25 146.64, 106.11 84.73, 179.91 -0.45 M1.15 214.62 C39.49 169.26, 76.97 123.5, 184.76 0.66 M0.61 213.93 C44.54 161.42, 89.32 110.54, 186.04 -0.59 M-0.83 218.49 C43.04 167.59, 87.93 116.16, 190.05 -0.83 M0.47 219.5 C57.2 153.02, 113.34 87.3, 190.28 0.07 M-0.81 224.12 C41.95 177.54, 83.19 132.06, 196.73 -0.32 M0.22 224.72 C57.21 158.52, 115.62 91.58, 196.9 0.23 M0.67 233.1 C68.04 150.24, 138.53 69.47, 200.9 0.03 M-0.55 231.17 C75.62 145.54, 150.31 58.21, 200.63 -0.51 M1.03 237.17 C55.27 173.23, 110.34 110.96, 206.86 -0.92 M0.28 237.34 C64.91 163.92, 126.98 92.4, 206.52 -0.56 M-1.06 242.54 C50.34 190.67, 98.13 133.32, 211.29 -0.81 M0.55 244.43 C53.24 186.13, 104.11 125.8, 211.94 0.05 M-0.45 249.59 C73.09 167.68, 144.12 85.58, 216.92 -1.6 M0.39 250.33 C47.26 194.5, 94.26 139.72, 217.58 -0.65 M1.16 256.39 C81.45 163.12, 162.72 68.72, 222.54 -1.12 M0.06 255.8 C68.6 176.71, 139.38 95.31, 222.63 -0.1 M0.13 263.42 C51.35 203.64, 101.07 145.09, 228.21 -0.89 M-0.27 261.77 C77.03 175.95, 152.2 87.43, 228.39 -0.16 M0.36 266.67 C71.94 181.46, 146.96 98.37, 233.62 -0.39 M-0.11 267.97 C89.71 164.68, 178.48 62.86, 233.56 -0.43 M0.98 273.51 C90.63 169.28, 181.56 64.46, 237.21 1.2 M0.52 274.21 C84.67 176.06, 169.19 77.92, 238.66 0.19 M0.86 280.22 C87.02 181.42, 173.31 82.24, 242.84 -0.75 M0.36 280.2 C76.78 192.56, 153.17 104.95, 243.27 -0.24 M0.29 286.84 C82.26 195.68, 162.83 101.72, 249.8 -0.58 M0.59 286.9 C84.76 186.83, 169.82 88.38, 248.8 0.57 M0.89 292.87 C54.16 231.1, 108.03 171.05, 253.87 -0.55 M0.01 292.57 C93.03 187.1, 184.63 80.84, 254.89 -0.56 M-0.72 298.82 C87.77 194.96, 178.96 91.38, 258.59 1.11 M0.13 298.86 C99.23 184.71, 197.47 71.47, 259.05 0.73 M0.39 305.89 C88.02 199.92, 179.71 96.22, 264.54 -0.75 M-0.25 304.78 C71.58 221.59, 143.52 139.13, 265.65 0.2 M-0.26 310.67 C67.49 231.48, 136.49 153.11, 271 0.08 M-0.05 311.28 C76 226.21, 151.3 140.25, 270.14 0.28 M-0.32 316.94 C73.72 234.03, 145.24 152.31, 275.53 -1.15 M-0.2 316.44 C98.05 201.56, 196.72 88.6, 276.15 -0.22 M-0.92 322.25 C65.85 247.29, 133.34 169.21, 281.45 0.08 M0.19 323.73 C81.02 231.64, 161.95 137.91, 281.05 -0.12 M-0.1 328.59 C62.64 256.44, 127.41 182.05, 286.7 0.36 M0.77 329.14 C65.28 254.33, 129.41 179.08, 286.1 -0.45 M0.7 335.36 C113.17 205.33, 227.63 75.67, 291.16 -0.38 M0.42 335.04 C116.88 201.9, 232.48 68.87, 290.89 0.46 M-0.81 341.26 C96.93 232.61, 192.54 121.26, 296.34 0.58 M-0.41 341.5 C80.08 250.16, 158.57 159.14, 296.91 -0.65 M0.69 347.94 C114.38 215.12, 229.94 81.11, 301.91 -0.24 M0.57 347.07 C65.51 272.14, 130.57 197.01, 302.22 -0.12 M0.46 353.49 C118.32 216.21, 238.51 77.15, 307.93 0.52 M-0.31 353.84 C104.04 233.48, 209.02 113.57, 307.17 0.07 M0.63 360.01 C121.5 222.17, 241.66 83.18, 313.21 0.83 M0.74 359.7 C92.51 252.95, 184.97 146.89, 312.6 0.34 M0.75 365.61 C96.51 253.6, 195.46 140.34, 317.66 0.07 M0.35 366.16 C97.93 253.78, 194.73 142.49, 318.1 -0.4 M-0.25 371.5 C116.98 238.57, 234.13 103.68, 323.67 0.11 M0.16 372.46 C69.85 290.74, 140.04 210.31, 323 0.18 M1.18 376.85 C98.55 264.67, 195.86 152.51, 328.43 -0.91 M0.93 377.03 C98.66 266.33, 195.03 155.04, 329.19 -0.39 M6.86 377.33 C126.57 238.95, 245.9 101.39, 333.63 -0.3 M6.74 377.04 C102.08 267.4, 197.42 158.76, 334.16 -0.04 M11.15 377.76 C81.31 296.4, 151.31 215.35, 339.75 -0.31 M11.87 377.21 C86.42 291.66, 160.32 207.09, 339.83 -0.36 M16.65 376.14 C95.79 286.37, 175.16 194.81, 343.95 0.14 M17.02 376.79 C103.57 276.22, 189.57 176.88, 344.75 0.11 M21.62 376.32 C112.03 273.2, 201.09 171.35, 350.1 -0.13 M22.45 376.8 C119.79 265.02, 217.36 152.65, 349.75 0.19 M27.45 377.01 C135.92 253.67, 243.25 128.95, 355.38 -0.03 M27.83 376.74 C100.85 294.09, 172.32 211.87, 355.09 -0.23 M33.28 376.72 C135.05 259.57, 238.16 141.43, 360.17 0.94 M32.57 377.31 C130.46 265.72, 227.71 153.84, 360.36 0.02 M38.59 377.18 C155.73 242.96, 272.99 107.42, 366.1 -0.34 M38.09 376.32 C123.78 275.47, 210.95 176.11, 365.81 -0.38 M42.66 377.07 C149.65 255.01, 254.52 133.62, 371.35 -0.03 M43.31 377.01 C137.76 267.1, 231.39 158.95, 370.5 0.29 M48.83 377.04 C163.79 244.18, 279.07 112.06, 375.78 -0.78 M49.34 376.73 C128.92 282.19, 210.15 188.15, 376.74 -0.13 M54.21 376.65 C166.41 247.57, 276.71 120.79, 381.11 0.47 M54.14 376.89 C157.24 256.7, 261.73 136.56, 381.03 0.31 M59.78 376.89 C165.69 254.53, 270.4 133.46, 386.36 0.62 M58.99 377.21 C139.49 285.26, 220.28 192.5, 387.27 -0.12 M64.99 376.65 C172.24 253.16, 280.2 129.06, 391.23 -0.56 M64.84 377.07 C169.81 254.16, 276.09 132.09, 392.17 0.36 M69.65 377.89 C193.27 234.39, 317.8 91.73, 398.02 0.52 M69.8 377.29 C157.89 275.29, 246.99 173.28, 397.57 0.12 M75.14 376.21 C179.08 259.42, 283.74 139.21, 402.13 -0.56 M75.22 377.19 C145.78 295.52, 215.76 216.06, 402.31 0.43 M79.77 377.79 C151.18 295.31, 223.34 211.69, 408.42 -0.84 M79.94 376.9 C199.01 240.88, 318.26 104.28, 408.15 0.19 M85.47 376.4 C167.53 281.87, 250.6 186.88, 413.7 -0.23 M86.23 376.84 C212.62 229.64, 339.11 84.11, 413.22 -0.16 M91.56 376.74 C169.43 287.79, 247.33 196.54, 418.27 -0.5 M90.8 376.92 C189.47 265.27, 287.79 153.13, 418.72 0.04 M96.64 376.24 C206.93 249.38, 318.09 122.22, 424.47 0.46 M96.38 376.74 C170.31 292.27, 244.15 207.34, 424.02 0.04 M101.93 377.22 C174.09 293.74, 244.72 212.28, 428.95 0.04 M101.13 377.2 C197.21 267.11, 292.81 157.77, 429.34 -0.47 M106.78 376.68 C210.75 256.65, 314.15 137.23, 434.06 -0.13 M106.97 376.74 C233.47 229.12, 361.34 81.81, 434.83 0.22 M112.03 376.85 C186.55 289.69, 262.87 201.65, 440.1 0.41 M112.25 376.89 C202.26 272.82, 292.75 168.52, 440.05 -0.32 M117.08 376.6 C241.87 236.4, 363.72 95.83, 445.54 0.32 M117.65 377 C226.12 254.18, 333.86 130.13, 445.49 0.1 M123.29 377.19 C236.36 245.08, 351.08 113.27, 450.43 -1 M122.86 377.29 C199.19 288.1, 275.77 200, 450.44 -0.2 M127.8 376.83 C204.23 288.76, 280.91 202.13, 455.04 -0.77 M128.47 376.83 C249.77 238.58, 369.97 100.13, 456.06 0.33 M133.39 376.52 C242.33 251.4, 351.39 126.34, 461.7 0.1 M133.43 376.62 C222.22 275.25, 310.23 173.9, 461.7 -0.43 M139.05 376.13 C226.13 276.6, 312.41 176.74, 466.98 -0.4 M139.4 376.68 C210.96 293.75, 282.7 211.4, 466.34 -0.32 M143.47 377.07 C253.54 253.42, 360.92 129.21, 470.88 1.14 M144.17 376.83 C248.25 256.24, 353.14 135.53, 471.5 0.13 M150.01 376.8 C273.56 233.84, 397.15 90.54, 477.19 -0.45 M150.02 376.92 C239.69 271.68, 330.72 167.54, 477.1 0.27 M154.15 376.23 C280.23 230.72, 407.6 83.81, 481.58 -0.02 M154.7 376.8 C240.79 278.04, 327.73 177.98, 481.86 0.71 M159.72 375.88 C267.46 253.14, 375.33 128.18, 488.2 -0.47 M160.66 376.64 C265.77 255.17, 370.61 135.16, 487.29 -0.06 M164.7 376.89 C278.26 246.12, 391.09 116.33, 492.9 0.31 M165.19 376.77 C232.35 299.57, 300.48 221.43, 492.41 0.31 M170.43 377.9 C238.35 296.53, 308.5 216.66, 498.8 -0.06 M170.57 377.23 C237.05 299.16, 304.47 221.52, 498.43 -0.14 M175.45 377.1 C281.75 254.84, 388.01 130.65, 502.84 -0.22 M175.96 377.07 C301.16 231.78, 426.7 87.7, 503.4 -0.08 M181.41 376.65 C300.02 240.11, 420.06 103.39, 509.64 0.3 M180.93 377.36 C304.01 235.56, 427.72 93.07, 508.58 0.14 M187.01 377.23 C270.56 279.28, 353.86 182.92, 513.29 -0.4 M186.32 376.99 C274.94 275.1, 362.57 173.59, 513.84 0.47 M192.24 376.56 C280.04 279.23, 365.98 180.02, 519.22 0.08 M191.32 377.06 C310.4 239.78, 428.24 104.1, 519.21 0.21 M197.82 376 C310.58 247.21, 423.87 116.99, 524.39 0.51 M197.36 376.73 C282.18 278.53, 368.26 179.39, 524.31 0 M201.4 377.59 C278.59 289.07, 355.32 200.9, 529.53 -0.51 M201.97 376.77 C289.47 277.25, 376.18 177.46, 529.92 0.05 M208.22 376.09 C274.86 301.58, 340.97 224.39, 535.34 0.38 M207.51 377.04 C276.19 298.97, 344.08 220.26, 534.97 0.51 M212.86 376.88 C323.22 249.8, 434.73 123.03, 540.38 0.28 M212.63 376.85 C303.94 272.02, 394.55 167.15, 540.51 -0.26 M217.98 376.87 C324.95 257.3, 429.95 136.26, 545.2 -0.19 M218.59 376.39 C306.22 273.88, 394.59 171.22, 545.94 0.29 M224.03 377.49 C317.23 270.67, 410.44 163.13, 551.88 0.11 M223.07 377.17 C346.16 235.3, 469.72 92.9, 551.34 -0.07 M228.76 376.88 C356.4 227.23, 486.31 79.86, 556.92 -0.23 M228.97 377 C312.58 281.42, 396.25 185.25, 556.11 0.01 M234.58 376.42 C339.66 257.02, 445.07 136.21, 561.99 -0.17 M234.2 376.77 C306.78 295.7, 377.7 213.72, 562.12 -0.24 M240.06 376.17 C305.13 299.08, 372.47 223.01, 566.87 0.75 M239.61 376.38 C336.14 264.3, 433.61 151.97, 566.74 -0.18 M244.06 376.61 C352.93 250.72, 463.65 124.41, 572.13 -0.63 M244.49 377.4 C321.99 286.42, 400.27 196.83, 572.36 -0.26 M250.05 377.18 C355.73 254.78, 461.71 134.59, 576.91 0.35 M250.43 376.61 C370.51 239.53, 489.43 102.83, 577.85 -0.14 M255.87 376.53 C373.18 239.93, 490.92 103.22, 582.53 0.99 M255.21 376.73 C373.32 239.86, 491.62 103.85, 582.65 0.43 M261.18 375.83 C332.66 295.72, 404.09 214.17, 588.76 0.55 M260.71 376.69 C377.28 242.77, 494.27 108.23, 588.65 -0.26 M265.27 377.39 C358.29 273.42, 448.38 167.76, 594.05 0.61 M265.97 376.79 C362.01 266.86, 458.57 155.77, 592.95 0.7 M271.33 376.8 C385.22 246.44, 498.94 117.6, 598.39 0.44 M271.91 376.15 C340.89 298.1, 410.05 218.48, 598.7 -0.15 M276.2 377.55 C372.92 265.25, 470.47 154, 603.44 -0.46 M276.77 377.11 C347.78 293.08, 420.22 209.3, 603.79 0.17 M282.67 376.72 C366.46 277.65, 451.7 181.18, 609.64 0.26 M282.46 376.25 C411 228.59, 538.57 80.37, 609.94 0.08 M287.64 376.48 C380.48 271.77, 471.43 165.43, 614.77 0.72 M287.57 376.78 C391.8 257.32, 495.03 138, 614.55 -0.14 M292.16 376.9 C391.53 263.87, 490.7 150.06, 620.63 0.6 M292.28 377.14 C358.28 303.29, 424.06 227.51, 619.85 -0.53 M297.65 377.22 C373.72 290.18, 449.01 202.89, 625.19 0.56 M297.88 377.2 C373.76 288.23, 450.07 201.43, 625.55 0.13 M303 377.91 C405.4 259.3, 506.86 142.97, 630.9 -0.05 M302.66 376.83 C392.01 274.99, 479.92 173.91, 630.73 -0.22 M308.95 377.53 C434.66 231.06, 562.73 85, 635.27 -0.55 M308.82 376.91 C375.05 300.21, 441.92 223.63, 636.12 0.25 M313.48 376.95 C414.83 261.63, 514.32 146.32, 640.7 0.38 M313.48 376.92 C400.11 277.97, 485.22 180.42, 641.21 -0.49 M318.5 377.11 C432.51 246.7, 545.1 116.95, 646.7 0.92 M319.44 376.78 C434.84 244.23, 549.94 111.55, 646.52 0.44 M323.61 376.79 C393.98 297.11, 463.58 216.33, 651.72 0.26 M323.82 376.82 C448.37 234.37, 571.65 92.38, 652.3 -0.12 M329.56 376.79 C435.16 255.15, 540.41 134.75, 656.57 -0.39 M329.58 376.42 C452.09 235.47, 576.15 92.43, 656.79 -0.17 M335.26 377.72 C445.92 247.76, 557.41 117.41, 663.1 -0.08 M334.97 377.22 C414.51 285.37, 494.51 193.61, 662.97 -0.34 M339.63 376.15 C436.47 267.77, 530.87 158.72, 667.9 -0.28 M340.25 376.95 C428.99 276.6, 516.16 175.95, 667.95 0.1 M344.97 376.8 C440.83 264.26, 539.56 151.73, 673.86 -0.77 M345.15 377.39 C422.13 290.8, 498.06 204.23, 672.97 -0.48 M350.87 375.9 C438.44 273.88, 526.68 173.3, 679.11 -0.21 M350.81 376.65 C476.56 232.44, 603.14 87.11, 678.39 0.25 M355.94 376.61 C446.39 272.36, 537.12 168.64, 683.68 -0.02 M355.58 377.1 C464.14 251.44, 573.12 126.1, 684.03 -0.71 M361.31 377.1 C427.22 298.17, 494.81 220.46, 689.72 -0.13 M361.8 376.9 C487.68 231.91, 613.51 86.54, 689.04 0.23 M366.01 376.45 C486.6 241.63, 604.13 105.63, 695.31 0.32 M366.83 377.06 C456.72 274.01, 546.42 170.83, 694.61 -0.07 M372.04 377.13 C470.05 263.77, 568.64 149.8, 699.5 0.79 M372.14 376.22 C470.13 264.24, 568.14 151.6, 699.83 -0.31 M376.52 376.4 C453.14 285.79, 532.8 197.19, 705.08 1.06 M376.83 376.92 C450.45 292.73, 522.65 208.55, 704.53 0.67 M383.22 376.91 C477.5 267.08, 574.25 157.46, 709.58 1.58 M382.7 376.29 C460.8 286.32, 540.01 195.48, 708.73 1.55 M388.27 376.42 C478.21 273.18, 566.62 170.03, 709.46 7.87 M387.71 377.26 C474.37 276.67, 561.81 176.64, 708.96 7.96 M393.23 376.93 C509.05 244.51, 623.31 113.48, 708.3 12.73 M393.54 376.71 C491.58 263.55, 590.77 148.99, 709.36 13.59 M399.12 377.35 C475.76 289.67, 551.53 199.69, 709.49 20.03 M398.12 376.73 C505.23 253.07, 613.72 128.51, 709.06 19.87 M403.81 377.04 C476.74 294.23, 549.51 212.69, 708.75 25.23 M403.61 376.86 C493.59 271.46, 584.24 167.32, 709.25 25.73 M409.48 376.39 C470.97 307.71, 531.01 238.57, 709.74 32.58 M409.45 376.62 C502.89 267.98, 597.29 160.5, 708.62 31.75 M413.28 377.96 C495.85 284.91, 576.48 191.94, 707.72 38.81 M413.71 376.78 C519.07 257.34, 624.09 136.56, 708.34 37.98 M420.25 376.93 C531.74 245.58, 644.56 114.09, 709.79 43.34 M420.15 377.23 C495.62 289.5, 571.67 201.98, 708.98 44.34 M424.26 377.49 C534.3 251.83, 644.46 125.2, 708.78 50.6 M425.05 377.07 C520.99 267.25, 616.24 158.09, 708.88 50.18 M429.69 376.82 C529.07 265.17, 628.23 149.86, 708.99 55.4 M430.6 376.95 C490.46 307.76, 551.45 237.78, 709.6 55.86 M436.28 377.83 C524.23 274.73, 611.76 173.79, 707.95 62.84 M435.59 376.86 C508.77 294.05, 581.77 209, 708.93 62.19 M440.5 376.58 C500.55 304.62, 562.24 234.09, 709.01 69.32 M440.99 376.78 C504.09 301.94, 568.55 227.05, 708.57 69.17 M445.17 377.63 C544.36 260.1, 644.42 145.41, 709.46 74.97 M445.6 377.26 C516.14 296.05, 586.23 215.97, 709.38 74.25 M450.52 376.82 C513.73 305.99, 574.75 235.56, 709.13 80.31 M451.78 376.99 C534.25 280.81, 616.87 185.8, 709.14 81.2 M457.54 376.94 C528.7 295.38, 601.56 211.78, 709.33 87.45 M456.58 376.54 C512.61 311.49, 569.35 246.46, 708.63 86.24 M462.4 376.94 C560.72 262.58, 658.73 149.84, 709.67 93.04 M461.96 376.25 C532.47 294.69, 604.33 213.28, 708.67 93.13 M467.47 376.33 C543.64 289.05, 620.33 200.86, 708.71 98.97 M467.16 377.51 C544.05 287.97, 621.16 197.7, 709.3 98.97 M473.36 376.1 C525.44 315.6, 578.09 254.99, 709.05 103.8 M473.12 377 C542.74 295.36, 612.97 215.25, 708.55 104.72 M478.05 375.79 C570.97 272.81, 661.29 164.97, 708.96 111.97 M478.25 377.55 C551.52 291.39, 625.01 205.33, 708.48 111.89 M483.18 377.21 C531.79 320.66, 580.61 265.22, 709.15 116.7 M484.13 376.39 C558.56 290.69, 632.48 203.17, 709.72 116.93 M488.64 375.82 C574.27 280.37, 659.18 183, 708.51 123.64 M488.84 377.49 C548.45 309.9, 606.48 243.1, 708.9 123.01 M493.45 375.3 C573.22 287.92, 649.55 200.4, 708.53 131.04 M493.94 376.81 C564.08 295.4, 633.33 215.43, 708.45 129.43 M498.28 376.21 C579.37 283.34, 659.35 191.52, 709.62 136.72 M499.12 377.5 C577.63 286.04, 658.83 193.79, 708.51 135.69 M503.66 377.36 C556.87 314.93, 609.55 255.15, 708.78 141.32 M505.19 376.26 C552.95 322.31, 600.06 269.3, 708.82 142.18 M509.95 377.32 C556.74 322.54, 603.17 268.83, 708.07 148.47 M509.95 376.18 C585.11 289.76, 660.61 203.68, 709.6 146.79 M515.14 376.49 C586.06 291.78, 659.47 207.25, 709.28 154.69 M515.36 377.13 C579.29 303.53, 643.3 229.39, 708.89 153.81 M520.81 375.66 C563.84 327.93, 608.52 276.91, 707.88 160.84 M520.78 377.1 C585.41 299.67, 651.89 223.37, 709.2 160.48 M526.24 376.17 C597.47 291.48, 671.66 208.44, 708.31 166.89 M525.01 377.8 C591.25 304.01, 656.9 228.65, 709.43 166.34 M531.98 377.29 C566.71 335.24, 601.78 294.71, 708.48 173.64 M531.69 376.4 C578.76 319.54, 626.14 264.69, 709.4 171.62 M536.03 377.88 C582.55 322.34, 629.84 267.49, 709.94 178.46 M535.63 377.48 C597.91 307.8, 658.48 238.78, 709.67 178 M541.26 375.25 C577.37 336.17, 613.98 294.32, 707.54 184.1 M541.09 376.78 C592.72 317.41, 642.97 258.8, 708.36 184.35 M545.11 377.45 C607.69 309.07, 667.07 240.59, 709.71 191.48 M546.26 377.18 C579.67 338.66, 613.07 299.26, 708.81 190.63 M550.86 375.69 C597.6 322.8, 640.69 272.09, 708.75 194.81 M552.95 376.17 C597.59 327.69, 641.23 276.72, 708.45 196.1 M557.22 375.91 C606.33 319.57, 657.69 262.14, 707.66 201.56 M556.95 377.48 C610.31 315.95, 664 253.69, 709.66 203 M563.01 377.69 C603.33 330.88, 643.39 283.07, 709.92 206.83 M563.1 376.41 C595.34 336.26, 630.07 297.4, 708.38 208.58 M566.62 376.06 C621.59 314.7, 675.78 250.95, 710.17 213.95 M567.22 376.71 C599.85 339.17, 631.43 303.84, 708.8 214.26 M574.57 377.42 C625.01 318.85, 676.31 259.05, 710.32 221.98 M572.96 375.84 C609.24 335.41, 645.38 294.06, 708.21 221.17 M580.24 377.37 C615.27 338.09, 650.48 293.48, 710.59 225.33 M578.73 376.86 C606.89 345.21, 636.35 311.07, 708.39 226.96 M585.45 376.79 C610.09 343.41, 642.99 309.97, 708.01 234.37 M584.07 377.05 C615.71 338.68, 648.81 302.01, 709.58 233.97 M591.04 377.06 C629.48 333.78, 666.07 287.54, 709.84 240.89 M589.02 377.82 C632.08 327.76, 674.81 278.49, 710.2 238.16 M596.8 374.88 C621.31 346.45, 644.5 317.44, 709.05 246.96 M595.29 377.01 C618.82 349.39, 642.1 322.46, 708.55 245.82 M597.94 375.84 C638.48 334.24, 676.23 287.57, 708.71 253.19 M599.71 377.54 C640.84 330.75, 681.6 282.72, 709.07 252.12 M605.9 377.82 C644.95 331.09, 683.67 285.96, 709.51 256.42 M605.13 377.17 C630.79 347.73, 655.92 317.6, 709.12 258.11 M608.67 376.43 C646.59 334.64, 683.08 292.34, 707.46 265.45 M609.94 377.34 C638.06 345.24, 665.79 315.39, 708.7 262.77 M615.58 376.47 C637.88 348.82, 665.18 319.78, 707.92 271.17 M617.04 376.88 C636.9 354.14, 658.42 328.84, 709.79 268.55 M621.64 377.37 C643.64 349.25, 666.78 324.84, 708.03 274.03 M621.28 376.86 C652.16 340.06, 685.68 301.85, 708.79 275.12 M628.31 376.56 C647.35 347.39, 670.72 323.63, 706.8 282.23 M626.44 376.33 C654.84 342.21, 684.89 310.3, 707.84 282.93 M631.89 375.04 C657.38 349.12, 683.12 317.86, 710.7 287.37 M630.7 377.1 C662.41 342.18, 691.88 306.63, 708.59 287.24 M635.57 377.41 C664.86 341.94, 695.71 311.56, 709.29 294.2 M636.97 376.3 C661.04 349.24, 686.17 321.83, 708.92 295.13 M641.14 377.68 C666.35 348.27, 691.15 321.7, 706.71 301.49 M641.62 377.36 C659.63 357.84, 674.35 338.92, 708.62 300.8 M646.47 378.9 C670.17 351.81, 694.05 320.96, 709.24 307.78 M648.21 378.12 C664.11 357.6, 680.45 339.97, 708.13 306.59 M651.75 375.37 C672.82 355.26, 693.29 330.45, 706.95 311.02 M652.85 376.28 C667.66 361.78, 680.36 345.57, 708.29 313.03 M657.78 376.05 C666.74 365.57, 679 352.24, 707.79 318.78 M658.65 377.24 C674.45 359.6, 689.79 340.92, 709.66 318.34 M664.76 378.02 C677.18 358.43, 693.46 341.97, 707.98 323.68 M663.66 376.82 C673.36 365.5, 683.56 354.15, 708.98 324.25 M666.62 377.94 C675.91 368.99, 685.07 356.63, 710.1 329.58 M669.39 377.14 C677.33 365.97, 687.1 356.96, 708.48 331.5 M673.84 377.42 C687.97 362.45, 699.8 346.77, 708.7 335.27 M674.71 377.28 C684.27 366.46, 693.49 356.74, 709.63 335.86 M679.74 378.52 C687.71 367.09, 701.08 355.35, 709.93 344.17 M678.42 377.17 C686.87 368.2, 694.12 361.34, 707.91 343.23 M683.32 377.16 C690.16 367.88, 697.79 359.92, 707.64 348.47 M685.1 376.28 C694.84 365.99, 704.1 354.59, 709.1 348.08 M691.55 378.56 C697.97 371, 704.73 360.67, 707.74 354.62 M689.68 377.48 C696.14 367.77, 703.36 359.68, 708.76 354.3 M694.2 374.69 C701.1 373.48, 702.58 366.59, 708.34 363.51 M695.34 375.76 C698.01 372.96, 702.51 368.63, 708.53 361.71 M701.55 376.16 C703.17 373.57, 706.32 369.15, 707.91 367.8 M700.18 376.4 C702.72 374.3, 706.55 371.02, 708.93 367.12 M706.11 376.37 C706.86 375.41, 708.19 374.66, 708.58 373.54 M706.16 376.51 C707.05 375.27, 708.25 374.34, 708.77 373.72" stroke="#868e96" stroke-width="0.5" fill="none"></path><path d="M0.06 -0.28 C268.04 -1.31, 536.06 -0.8, 707.71 0.34 M-0.03 -0.34 C144.7 -0.05, 289.63 0.18, 706.86 -0.08 M706.65 -0.54 C706.87 95.5, 707.35 191.1, 707.31 376.79 M706.7 -0.14 C707.36 140.7, 707.01 280.83, 706.76 376.24 M707.38 376.02 C453.89 377.29, 200.33 377.14, 0.22 375.74 M707.46 376.01 C481.25 373.44, 255.8 373.51, -0.08 375.78 M-0.01 375.65 C1.45 269.6, 2.81 165.64, 0.65 0.35 M-0.27 375.99 C0.77 240.32, 0.26 104.68, -0.51 0.02" stroke="#000000" stroke-width="1" fill="none"></path></g><g stroke-linecap="round" transform="translate(149.99996948242188 202.60006713867188) rotate(0 213.19998168945312 165.2000122070312)"><path d="M-1.41 0.9 L428.22 0.07 L424.62 328.86 L0.95 331.4" stroke="none" stroke-width="0" fill="#ced4da"></path><path d="M-0.56 -0.25 C146.99 -0.53, 292.78 -0.14, 427.08 -0.38 M-0.13 -0.42 C125.43 0.09, 250.24 0.32, 426.62 0.39 M426.09 -1.09 C428.56 129.44, 429.45 259.66, 426.88 330.69 M426.31 0.32 C427.71 95.9, 427.04 192.09, 426.43 329.83 M426.38 330.77 C307.73 332.15, 188.15 332.28, 0.3 329.75 M426.31 330.46 C270.66 331.51, 115.46 332.08, 0.12 330.85 M1.07 329.38 C1.12 255.38, 1.19 178.24, 0.05 -0.69 M0.68 330.94 C0.46 243.34, 1.41 157.18, -0.6 0.55" stroke="#000000" stroke-width="1" fill="none"></path></g><g stroke-linecap="round" transform="translate(165.20001220703125 378.0000457763672) rotate(0 200 71.19999694824219)"><path d="M0.61 1.07 C147.51 0.44, 294.14 0.64, 400.68 -0.19 M0.41 -0.28 C92.84 1.46, 186.27 1.3, 399.62 -0.55 M400.94 1.24 C400.45 41.17, 401.08 84.95, 401.42 141.04 M400.35 0.49 C401.88 44.71, 400.05 87.18, 399.53 141.9 M398.92 142.01 C290.88 142.21, 180.36 142.41, -0.33 141.74 M400.13 142.9 C256.58 142.14, 114.31 142.44, -0.24 141.93 M-1.49 142.57 C-0.84 107.35, 1.78 72.26, -0.14 -0.08 M0.23 143.03 C0.17 92.95, -1.57 42.6, -0.4 0.77" stroke="#000000" stroke-width="1" fill="none"></path></g><g transform="translate(326 381.50001525878906) rotate(0 35 17.5)"><text x="0" y="25" font-family="Virgil, Segoe UI Emoji" font-size="28px" fill="#000000" text-anchor="start" style="white-space: pre;" direction="ltr">LAPS</text></g><g stroke-linecap="round" transform="translate(165.199951171875 301.19993591308594) rotate(0 201.60000610351562 22.800003051757812)"><path d="M0.07 -0.56 C139.56 1.19, 279.64 -0.28, 402.96 -0.63 M-0.54 0.51 C83.3 -1.81, 167.16 -2.1, 403.08 0.04 M403.29 -1.85 C402.2 13.96, 403.14 31.27, 401.73 45.01 M402.34 0.45 C403.31 11.59, 402.84 25.66, 403.23 45.26 M402.81 45.51 C318.17 45.53, 234.1 46.5, -1.08 45.65 M403.14 46.08 C285.48 45.61, 167.69 45.58, -0.01 45.67 M-0.04 43.76 C0.06 32.74, -0.87 23.84, 1.79 1.7 M-0.05 46.52 C0.95 29.91, 0.54 13.26, -0.34 0.54" stroke="#000000" stroke-width="1" fill="none"></path></g><g stroke-linecap="round" transform="translate(459.5999755859375 308.40003967285156) rotate(0 46.4000244140625 14.800003051757812)"><path d="M-0.3 -1.26 L91.6 0.1 L94.21 30.21 L1.97 30.1" stroke="none" stroke-width="0" fill="#ced4da"></path><path d="M1.84 1.72 C26.41 0.95, 50.88 -0.63, 93.88 0.16 M-0.79 -0.7 C24.43 0.28, 50.05 -0.47, 92.42 0.89 M92.48 1.13 C90.96 12.85, 93.03 23.05, 91.63 31.26 M92.12 0.09 C92.58 6.67, 92.52 12.58, 93.46 28.71 M94.79 31.17 C65.12 30.12, 38.35 28.89, -1.07 30.1 M93.25 30.4 C56.97 30.26, 20.42 29.63, -0.2 29.96 M1.41 28.24 C0.19 20.97, -0.63 8.7, -1.21 0.7 M0.45 29.41 C-0.67 20.04, -0.2 10.49, 0.09 0.95" stroke="#000000" stroke-width="1" fill="none"></path></g><g transform="translate(471.50006103515625 310.9000244140625) rotate(0 34.5 12.5)"><text x="34.5" y="18" font-family="Virgil, Segoe UI Emoji" font-size="20px" fill="#364fc7" text-anchor="middle" style="white-space: pre;" direction="ltr">RESET</text></g><g stroke-linecap="round" transform="translate(180.79998779296875 309.79998779296875) rotate(0 41.20001220703125 14.800003051757812)"><path d="M0.37 1.68 L82.56 -1.86 L81.85 31.03 L1.83 29.01" stroke="none" stroke-width="0" fill="#ced4da"></path><path d="M-1.55 -0.29 C20.39 -0.9, 41.25 -1.58, 84.26 0.64 M-0.52 -0.76 C31.39 -1.05, 61.79 -0.63, 82.39 -0.02 M80.84 -1.67 C83.58 9.79, 82.71 20.83, 80.8 27.83 M83.23 0.69 C82.86 9.96, 82.47 20.27, 82.98 28.99 M83.91 30.36 C55.98 32.16, 30.99 31.13, -0.94 28.28 M81.55 29.18 C53.46 28.97, 24.65 28.84, -0.64 29.59 M-0.67 30.86 C-0.08 19.18, -0.19 10.25, -0.16 -1.89 M-0.87 29.94 C-0.49 23.35, 0.14 15.48, -0.04 -0.07" stroke="#000000" stroke-width="1" fill="none"></path></g><g transform="translate(187.300048828125 312.2999725341797) rotate(0 35.5 12.5)"><text x="35.5" y="18" font-family="Virgil, Segoe UI Emoji" font-size="20px" fill="#364fc7" text-anchor="middle" style="white-space: pre;" direction="ltr">START</text></g><g stroke-linecap="round" transform="translate(268.79998779296875 309.1999816894531) rotate(0 41.20001220703125 14.800003051757812)"><path d="M-0.07 0.09 L80.46 -1.86 L80.64 28.98 L1.83 30.25" stroke="none" stroke-width="0" fill="#ced4da"></path><path d="M1.67 1.97 C24.15 -0.72, 43.93 -0.49, 81.26 -1.56 M0.55 0.72 C18.53 -1.56, 37.77 -0.73, 82.67 -0.6 M83.94 0.13 C83.57 10.19, 81.36 18.64, 80.83 31.22 M83.36 -0.56 C81.85 9.11, 82.66 16.87, 83.09 30.37 M83.1 30.25 C64.19 30.69, 47.07 28.19, 0.33 31.58 M82.08 30.06 C66.05 29.24, 49.1 29.3, -0.74 30.28 M1.45 28.53 C-1.53 23.9, -0.06 16.87, 0.66 -0.72 M0.69 30.59 C-0.55 21.12, 0.34 14.15, 0.19 0.81" stroke="#000000" stroke-width="1" fill="none"></path></g><g transform="translate(277.800048828125 311.69996643066406) rotate(0 33 12.5)"><text x="33" y="18" font-family="Virgil, Segoe UI Emoji" font-size="20px" fill="#364fc7" text-anchor="middle" style="white-space: pre;" direction="ltr">PAUSE</text></g><g stroke-linecap="round" transform="translate(359.7999267578125 307.9999694824219) rotate(0 46.4000244140625 14.800003051757812)"><path d="M-1.07 1.8 L92.78 -1.23 L94.11 29.78 L-1.03 29.33" stroke="none" stroke-width="0" fill="#ced4da"></path><path d="M1.98 -0.09 C31.97 -0.29, 65.93 1.44, 92.73 1.68 M-0.48 0.31 C26.56 0.47, 53.48 1.38, 93.63 0.11 M92.5 -0.94 C92.87 9.73, 91.98 18.14, 93.84 29.23 M93.59 -0.72 C92.23 6.45, 92 12.38, 93.02 30.39 M91.2 27.98 C64.39 30.44, 39.81 31.29, -1.79 31.02 M91.88 30.12 C67.12 30.03, 40.26 29.64, -0.04 30.24 M-0.66 28.78 C-0.33 21.62, 1.53 16.29, -0.28 0.68 M-0.21 30.5 C0.74 19.99, 0.15 7.74, -0.93 -0.51" stroke="#000000" stroke-width="1" fill="none"></path></g><g transform="translate(359.70001220703125 310.4999542236328) rotate(0 46.5 12.5)"><text x="46.5" y="18" font-family="Virgil, Segoe UI Emoji" font-size="20px" fill="#364fc7" text-anchor="middle" style="white-space: pre;" direction="ltr">ADD LAP</text></g><g stroke-linecap="round" transform="translate(166.79995727539062 222.79998779296875) rotate(0 201.60000610351562 22.800003051757812)"><path d="M-0.32 1.08 C154.73 -0.52, 306.83 -0.75, 403.39 0 M-0.56 0.46 C141.84 -2.4, 283.56 -1.94, 402.73 -0.39 M404.13 1.38 C405.12 15.56, 403.92 30.57, 404.86 44.91 M402.38 -0.06 C402.69 12.74, 404.07 24.76, 404.1 46.13 M404.22 46.58 C281.72 45.14, 159.06 45.97, 0.39 44.98 M403.59 45.83 C272.55 43.26, 142.42 43.32, 0.03 45.29 M0.43 46.03 C-0.02 35.49, 1.95 25.36, -0.42 1.54 M-0.22 46.06 C0.55 32.79, -0.28 19.2, 0.59 -0.3" stroke="#000000" stroke-width="1" fill="none"></path></g><g transform="translate(182 234.6000213623047) rotate(0 168 12.5)"><text x="0" y="18" font-family="Virgil, Segoe UI Emoji" font-size="20px" fill="#364fc7" text-anchor="start" style="white-space: pre;" direction="ltr">00 HRS 00 MIN 00 SEC 000 MS</text></g><g transform="translate(159.60003662109375 171.40000915527344) rotate(0 62 12.5)"><text x="0" y="18" font-family="Virgil, Segoe UI Emoji" font-size="20px" fill="#364fc7" text-anchor="start" style="white-space: pre;" direction="ltr">STOPWATCH</text></g><g transform="translate(314.20013427734375 171.09999084472656) rotate(0 35 12.5)"><text x="0" y="18" font-family="Virgil, Segoe UI Emoji" font-size="20px" fill="#364fc7" text-anchor="start" style="white-space: pre;" direction="ltr">TIMER</text></g><g transform="translate(445.5999755859375 170.10008239746094) rotate(0 58 12.5)"><text x="0" y="18" font-family="Virgil, Segoe UI Emoji" font-size="20px" fill="#364fc7" text-anchor="start" style="white-space: pre;" direction="ltr">POMODORO</text></g></svg>